# xmcd
#
# Track frame offsets: 
#        150
#        18431
#        39478
#        51402
#        65622
#        99159
#
# Disc length: 1587 seconds
#
# Revision: 1
# Processed by: cddbd v1.5.1PL2 Copyright (c) Steve Scherf et al.
# Submitted via: ExactAudioCopy v0.95b4
#
DISCID=48063106
DTITLE=5 Dong Ke - Tu Tinh Ca
DYEAR=2005
DGENRE=Vocal
TTITLE0=Hay Yeu Nhau Di (TCS)
TTITLE1=Le Da (Tran Trinh, tho Ha Huyen Chi)
TTITLE2=Tien Thoai Luong Nan (TCS)
TTITLE3=Ngau Nhien (TCS)
TTITLE4=Tu Tinh Ca (Buon Oi! Chao mi, Co Don, Loi Ve, Xin Nhu Lan May 
TTITLE4=Trang) (Nguyen Anh 9)
TTITLE5=Canh Hong (Bao Lan)
EXTD=
EXTT0=
EXTT1=
EXTT2=
EXTT3=
EXTT4=
EXTT5=
PLAYORDER=
